# xmcd
#
# Track frame offsets:
#	150
#	13012
#	47807
#
# Disc length: 1037 seconds
#
# Revision: 1
# Processed by: cddbd v1.5.2PL0 Copyright (c) Steve Scherf et al.
# Submitted via: audiograbber 1.83.01
#
DISCID=1d040b03
DTITLE=Fierce Ruling Diva - CD-Maxi
DYEAR=2001
DGENRE=House
TTITLE0=Rubb It In (Raoul Luciano Edit)
TTITLE1=Rubb It In (BK Remix)
TTITLE2=Rubb It In (Raoul Luciano Remix)
EXTD=
EXTT0=
EXTT1=
EXTT2=
PLAYORDER=
